#!OML:ASF F:\VICON\USERDATA\INSTALL\Justin_Nancy\Justin_Nancy.ASF
:FULLY-SPECIFIED
:DEGREES
133
root -6.62345 16.9554 -4.5802 -2.13571 31.0563 -11.7956
lowerback 7.4082 -0.396783 6.58998
upperback -0.661475 0.414231 5.9033
thorax -4.87126 0.138287 2.42178
lowerneck -14.4565 -3.17885 -8.0971
upperneck 21.4717 -3.16078 3.3544
head 9.34451 -1.7401 2.12216
rclavicle -1.799e-014 -1.35174e-014
rhumerus -35.7873 -6.86742 -78.4391
rradius 44.8101
rwrist -3.28715
rhand -21.3017 15.9292
rfingers 7.12502
rthumb 5.08306 -13.9898
lclavicle -1.799e-014 -1.35174e-014
lhumerus -37.429 19.2959 78.3342
lradius 16.9957
lwrist -18.3048
lhand -15.5993 20.2001
lfingers 7.12502
lthumb 10.5867 49.9134
rfemur 19.4966 6.68395 29.4964
rtibia 8.26944e-014
rfoot -11.0653 -3.70922
rtoes -16.0105
lfemur -39.2785 -1.66994 -16.3627
ltibia 21.4436
lfoot -8.08352 12.0753
ltoes 3.12679
134
root -6.52048 16.9209 -4.37711 -1.71189 30.4437 -11.539
lowerback 7.29042 -0.0485895 6.4087
upperback -0.803726 0.849435 5.73635
thorax -4.94999 0.351382 2.29754
lowerneck -14.2194 -3.1822 -7.95001
upperneck 21.4768 -3.18676 3.21498
head 9.29885 -1.75664 2.04842
rclavicle -1.12115e-013 3.26007e-014
rhumerus -35.649 -6.72081 -78.5279
rradius 44.4381
rwrist -2.92169
rhand -21.2155 16.3457
rfingers 7.12502
rthumb 5.1663 -13.5713
lclavicle -1.12115e-013 3.26007e-014
lhumerus -38.1678 20.2166 77.27
lradius 16.785
lwrist -18.3805
lhand -15.6843 21.9635
lfingers 7.12502
lthumb 10.5047 51.681
rfemur 20.0602 7.31553 29.3273
rtibia -3.18055e-015
rfoot -11.0409 -3.30769
rtoes -18.1678
lfemur -39.4078 -2.29506 -15.807
ltibia 20.1578
lfoot -8.48522 13.8745
ltoes 1.28728
135
root -6.41004 16.9023 -4.17494 -1.35593 29.9718 -11.2098
lowerback 7.21492 0.230552 6.31659
upperback -0.854038 1.19128 5.46752
thorax -4.952 0.516195 2.02689
lowerneck -14.4765 -3.15974 -7.68865
upperneck 21.7585 -3.17256 3.1033
head 9.43698 -1.74144 1.96766
rclavicle 6.07287e-014 -1.03368e-014
rhumerus -35.2698 -6.70071 -78.7417
rradius 43.8392
rwrist -2.65878
rhand -21.2091 17.1984
rfingers 7.12502
rthumb 5.17241 -12.7184
lclavicle 6.07287e-014 -1.03368e-014
lhumerus -38.8049 21.6806 75.7974
lradius 16.3594
lwrist -19.1388
lhand -15.8267 22.4373
lfingers 7.12502
lthumb 10.3674 52.1617
rfemur 20.718 7.8007 29.0576
rtibia 4.13472e-014
rfoot -10.8276 -2.81408
rtoes -17.43
lfemur -39.3894 -2.69757 -15.5235
ltibia 19.525
lfoot -9.16009 14.8592
ltoes 1.65353
136
root -6.29103 16.8867 -3.97239 -0.982294 29.6363 -10.7731
lowerback 7.10619 0.473306 6.19659
upperback -0.875747 1.47374 5.15133
thorax -4.90251 0.652804 1.72999
lowerneck -14.8453 -3.14729 -7.607
upperneck 22.0876 -3.17251 3.20667
head 9.62102 -1.72333 1.98914
rclavicle 3.63776e-014 0
rhumerus -34.9058 -6.81078 -78.9305
rradius 43.5099
rwrist -2.81371
rhand -20.4365 16.6379
rfingers 7.12502
rthumb 5.91841 -13.2594
lclavicle 3.63776e-014 0
lhumerus -39.6885 24.5337 73.2531
lradius 15.5566
lwrist -21.5878
lhand -15.4348 20.2113
lfingers 7.12502
lthumb 10.7454 49.9164
rfemur 21.4091 8.16048 28.6315
rtibia -4.13472e-014
rfoot -10.6109 -2.28896
rtoes -17.8396
lfemur -39.3189 -2.83949 -15.6231
ltibia 19.4943
lfoot -9.58861 14.7399
ltoes 4.54374
137
root -6.16845 16.8856 -3.7707 -0.699289 29.3291 -10.525
lowerback 7.08445 0.698861 6.19052
upperback -0.942122 1.76666 4.99209
thorax -4.95013 0.79264 1.53425
lowerneck -15.2348 -3.19513 -7.90443
upperneck 22.403 -3.17995 3.39844
head 9.81577 -1.73009 2.104
rclavicle -3.24516e-014 -1.35174e-014
rhumerus -34.7694 -7.00405 -78.8217
rradius 43.5923
rwrist -3.23217
rhand -18.4013 14.8532
rfingers 7.12502
rthumb 7.883 -14.9798
lclavicle -3.24516e-014 -1.35174e-014
lhumerus -40.6832 26.9871 71.026
lradius 14.8995
lwrist -23.6282
lhand -14.317 17.8319
lfingers 7.12502
lthumb 11.8234 47.4782
rfemur 21.973 8.50165 28.321
rtibia -6.36111e-015
rfoot -10.1741 -1.4502
rtoes -21.0165
lfemur -39.2226 -2.9318 -15.5717
ltibia 19.9257
lfoot -9.75637 13.9852
ltoes 8.7148
138
root -6.042 16.8751 -3.55715 -0.544196 29.1084 -10.2759
lowerback 7.03763 0.889792 6.15891
upperback -0.952642 2.00468 4.84115
thorax -4.92517 0.908275 1.36798
lowerneck -15.3583 -3.23537 -8.16276
upperneck 22.4643 -3.19696 3.55447
head 9.86998 -1.7417 2.19926
rclavicle -8.99501e-015 -8.98507e-014
rhumerus -34.8439 -7.23985 -78.7275
rradius 43.523
rwrist -3.15278
rhand -17.3359 14.2197
rfingers 7.12502
rthumb 8.91118 -15.5721
lclavicle -8.99501e-015 -8.98507e-014
lhumerus -41.7046 28.7696 69.1542
lradius 14.4276
lwrist -24.7255
lhand -14.1513 16.9102
lfingers 7.12502
lthumb 11.9833 46.5472
rfemur 22.7156 8.7419 28.0094
rtibia -8.5875e-014
rfoot -9.64927 -0.335977
rtoes -22.0056
lfemur -39.1178 -2.1553 -16.1869
ltibia 20.7918
lfoot -9.26459 12.3323
ltoes 7.7745
139
root -5.91505 16.8493 -3.33535 -0.538586 28.9817 -10.1985
lowerback 6.93848 1.01024 6.24009
upperback -0.970943 2.15432 4.69006
thorax -4.87592 0.977716 1.1502
lowerneck -15.3217 -3.18369 -8.31289
upperneck 22.5377 -3.14801 3.79488
head 9.89211 -1.70525 2.31701
rclavicle -4.31363e-014 3.4191e-014
rhumerus -35.0761 -7.46431 -78.7727
rradius 43.3394
rwrist -2.94155
rhand -17.2855 14.4512
rfingers 7.12502
rthumb 8.95982 -15.3386
lclavicle -4.31363e-014 3.4191e-014
lhumerus -42.5742 29.3433 68.008
lradius 14.3081
lwrist -24.1375
lhand -14.6922 18.6205
lfingers 7.12502
lthumb 11.4616 48.2871
rfemur 23.64 8.85055 27.9485
rtibia 6.67916e-014
rfoot -8.94563 0.408094
rtoes -23.4953
lfemur -39.166 -1.14362 -16.9189
ltibia 22.1082
lfoot -8.00087 10.4704
ltoes 6.69312
140
root -5.78665 16.8392 -3.11913 -0.489048 28.9458 -10.0364
lowerback 6.92498 1.0831 6.23979
upperback -1.00099 2.24438 4.56246
thorax -4.89195 1.01887 1.00745
lowerneck -15.479 -3.12346 -8.62892
upperneck 22.6414 -3.02776 4.03864
head 9.96026 -1.64865 2.47237
rclavicle 1.22253e-014 -3.97569e-015
rhumerus -35.0876 -7.76537 -78.6995
rradius 43.0613
rwrist -2.66599
rhand -16.9307 14.2688
rfingers 7.12502
rthumb 9.30223 -15.506
lclavicle 1.22253e-014 -3.97569e-015
lhumerus -43.368 30.0583 66.9874
lradius 14.1739
lwrist -24.407
lhand -14.3141 19.133
lfingers 7.12502
lthumb 11.8262 48.7791
rfemur 24.4993 8.87649 27.7916
rtibia -8.90555e-014
rfoot -7.84974 1.10336
rtoes -23.973
lfemur -39.2953 -0.0606548 -17.8863
ltibia 23.7049
lfoot -6.17813 8.75679
ltoes 7.49787
141
root -5.65189 16.8611 -2.90161 -0.280859 29.153 -9.62669
lowerback 6.8217 1.11624 5.9692
upperback -0.973563 2.24699 4.46727
thorax -4.80923 1.02777 1.05995
lowerneck -15.8135 -3.1188 -8.85008
upperneck 22.6834 -2.91726 3.98283
head 10.0352 -1.62082 2.50255
rclavicle 3.21534e-014 3.26007e-014
rhumerus -34.6685 -7.77424 -78.4831
rradius 42.4707
rwrist -2.7152
rhand -16.9504 14.3437
rfingers 7.12502
rthumb 9.28324 -15.4319
lclavicle 3.21534e-014 3.26007e-014
lhumerus -44.1833 31.748 65.5984
lradius 13.8035
lwrist -26.0876
lhand -13.738 18.8561
lfingers 7.12502
lthumb 12.3818 48.4694
rfemur 24.3925 8.69875 27.3343
rtibia 1.53032
rfoot -7.12503 1.72854
rtoes -24.5106
lfemur -39.5472 0.638113 -18.9971
ltibia 25.4416
lfoot -4.30068 8.32654
ltoes 7.47465
